{
  "accessors": [
    {
      "bufferView": 2,
      "componentType": 5126,
      "count": 1012,
      "max": [
        0.21743054687976837,
        0.24033224582672119,
        0.13758580386638641
      ],
      "min": [
        -0.23799587786197662,
        -0.14414821565151215,
        -0.24275693297386169
      ],
      "type": "VEC3"
    },
    {
      "bufferView": 2,
      "byteOffset": 12144,
      "componentType": 5126,
      "count": 1012,
      "max": [
        1,
        0.99943435192108154,
        0.99970567226409912
      ],
      "min": [
        -1,
        -0.99953794479370117,
        -0.99980628490447998
      ],
      "type": "VEC3"
    },
    {
      "bufferView": 0,
      "componentType": 5125,
      "count": 3846,
      "max": [
        1011
      ],
      "min": [
        0
      ],
      "type": "SCALAR"
    },
    {
      "bufferView": 2,
      "byteOffset": 24288,
      "componentType": 5126,
      "count": 32,
      "max": [
        0.17823036015033722,
        -0.48469123244285583,
        -0.41180378198623657
      ],
      "min": [
        -0.31106379628181458,
        -0.66971707344055176,
        -0.90109789371490479
      ],
      "type": "VEC3"
    },
    {
      "bufferView": 2,
      "byteOffset": 24672,
      "componentType": 5126,
      "count": 32,
      "max": [
        0.86800533533096313,
        0.93525153398513794,
        0.86800533533096313
      ],
      "min": [
        -0.86800533533096313,
        0.38378283381462097,
        -0.86800533533096313
      ],
      "type": "VEC3"
    },
    {
      "bufferView": 0,
      "byteOffset": 15384,
      "componentType": 5125,
      "count": 114,
      "max": [
        31
      ],
      "min": [
        0
      ],
      "type": "SCALAR"
    },
    {
      "bufferView": 2,
      "byteOffset": 25056,
      "componentType": 5126,
      "count": 2667,
      "max": [
        1.6196578741073608,
        2.2965011596679688,
        1.9496529102325439
      ],
      "min": [
        -1.6196576356887817,
        -1.1299154758453369,
        -1.1464865207672119
      ],
      "type": "VEC3"
    },
    {
      "bufferView": 2,
      "byteOffset": 57060,
      "componentType": 5126,
      "count": 2667,
      "max": [
        1,
        1,
        1
      ],
      "min": [
        -1,
        -1,
        -1
      ],
      "type": "VEC3"
    },
    {
      "bufferView": 0,
      "byteOffset": 15840,
      "componentType": 5125,
      "count": 10740,
      "max": [
        2666
      ],
      "min": [
        0
      ],
      "type": "SCALAR"
    },
    {
      "bufferView": 2,
      "byteOffset": 89064,
      "componentType": 5126,
      "count": 3199,
      "max": [
        1.1746933460235596,
        1.2550951242446899,
        3.585277795791626
      ],
      "min": [
        -1.1809635162353516,
        -0.71222621202468872,
        -3.8287289142608643
      ],
      "type": "VEC3"
    },
    {
      "bufferView": 2,
      "byteOffset": 127452,
      "componentType": 5126,
      "count": 3199,
      "max": [
        1,
        1,
        0.98986852169036865
      ],
      "min": [
        -1,
        -1,
        -1
      ],
      "type": "VEC3"
    },
    {
      "bufferView": 0,
      "byteOffset": 58800,
      "componentType": 5125,
      "count": 11781,
      "max": [
        3198
      ],
      "min": [
        0
      ],
      "type": "SCALAR"
    },
    {
      "bufferView": 2,
      "byteOffset": 165840,
      "componentType": 5126,
      "count": 32,
      "max": [
        0.17823036015033722,
        -0.48469123244285583,
        -0.41180378198623657
      ],
      "min": [
        -0.31106379628181458,
        -0.66971707344055176,
        -0.90109789371490479
      ],
      "type": "VEC3"
    },
    {
      "bufferView": 2,
      "byteOffset": 166224,
      "componentType": 5126,
      "count": 32,
      "max": [
        0.86800533533096313,
        0.93525153398513794,
        0.86800533533096313
      ],
      "min": [
        -0.86800533533096313,
        0.38378283381462097,
        -0.86800533533096313
      ],
      "type": "VEC3"
    },
    {
      "bufferView": 0,
      "byteOffset": 105924,
      "componentType": 5125,
      "count": 114,
      "max": [
        31
      ],
      "min": [
        0
      ],
      "type": "SCALAR"
    },
    {
      "bufferView": 2,
      "byteOffset": 166608,
      "componentType": 5126,
      "count": 2667,
      "max": [
        1.6196577548980713,
        2.4006872177124023,
        1.8260790109634399
      ],
      "min": [
        -1.6196577548980713,
        -1.0257294178009033,
        -1.2700604200363159
      ],
      "type": "VEC3"
    },
    {
      "bufferView": 2,
      "byteOffset": 198612,
      "componentType": 5126,
      "count": 2667,
      "max": [
        1,
        1,
        1
      ],
      "min": [
        -1,
        -1,
        -1
      ],
      "type": "VEC3"
    },
    {
      "bufferView": 0,
      "byteOffset": 106380,
      "componentType": 5125,
      "count": 10740,
      "max": [
        2666
      ],
      "min": [
        0
      ],
      "type": "SCALAR"
    },
    {
      "bufferView": 2,
      "byteOffset": 230616,
      "componentType": 5126,
      "count": 17706,
      "max": [
        1.3881423473358154,
        1.5197732448577881,
        3.882983922958374
      ],
      "min": [
        -1.3546527624130249,
        -1.0281581878662109,
        -4.0613293647766113
      ],
      "type": "VEC3"
    },
    {
      "bufferView": 2,
      "byteOffset": 443088,
      "componentType": 5126,
      "count": 17706,
      "max": [
        1,
        1,
        1
      ],
      "min": [
        -1,
        -1,
        -1
      ],
      "type": "VEC3"
    },
    {
      "bufferView": 1,
      "componentType": 5126,
      "count": 17706,
      "max": [
        1.9998066425323486,
        0.99771690368652344
      ],
      "min": [
        0,
        0
      ],
      "type": "VEC2"
    },
    {
      "bufferView": 0,
      "byteOffset": 149340,
      "componentType": 5125,
      "count": 61041,
      "max": [
        17705
      ],
      "min": [
        0
      ],
      "type": "SCALAR"
    },
    {
      "bufferView": 2,
      "byteOffset": 655560,
      "componentType": 5126,
      "count": 3092,
      "max": [
        1.127866268157959,
        0.3785381019115448,
        0.37853646278381348
      ],
      "min": [
        -1.1278672218322754,
        -0.37854033708572388,
        -0.37854218482971191
      ],
      "type": "VEC3"
    },
    {
      "bufferView": 2,
      "byteOffset": 692664,
      "componentType": 5126,
      "count": 3092,
      "max": [
        1,
        0.99999988079071045,
        0.99999988079071045
      ],
      "min": [
        -1,
        -0.99999988079071045,
        -0.99999988079071045
      ],
      "type": "VEC3"
    },
    {
      "bufferView": 1,
      "byteOffset": 141648,
      "componentType": 5126,
      "count": 3092,
      "max": [
        0.99872505664825439,
        0.90842407941818237
      ],
      "min": [
        0.09907764196395874,
        0.046063341200351715
      ],
      "type": "VEC2"
    },
    {
      "bufferView": 0,
      "byteOffset": 393504,
      "componentType": 5125,
      "count": 10080,
      "max": [
        3091
      ],
      "min": [
        0
      ],
      "type": "SCALAR"
    },
    {
      "bufferView": 2,
      "byteOffset": 729768,
      "componentType": 5126,
      "count": 3092,
      "max": [
        1.127866268157959,
        0.3785381019115448,
        0.37854045629501343
      ],
      "min": [
        -1.1278672218322754,
        -0.37854033708572388,
        -0.37853825092315674
      ],
      "type": "VEC3"
    },
    {
      "bufferView": 2,
      "byteOffset": 766872,
      "componentType": 5126,
      "count": 3092,
      "max": [
        1,
        0.99999988079071045,
        0.99999988079071045
      ],
      "min": [
        -1,
        -0.99999988079071045,
        -0.99999988079071045
      ],
      "type": "VEC3"
    },
    {
      "bufferView": 1,
      "byteOffset": 166384,
      "componentType": 5126,
      "count": 3092,
      "max": [
        0.99872505664825439,
        0.90842407941818237
      ],
      "min": [
        0.09907764196395874,
        0.046063341200351715
      ],
      "type": "VEC2"
    },
    {
      "bufferView": 0,
      "byteOffset": 433824,
      "componentType": 5125,
      "count": 10080,
      "max": [
        3091
      ],
      "min": [
        0
      ],
      "type": "SCALAR"
    },
    {
      "bufferView": 2,
      "byteOffset": 803976,
      "componentType": 5126,
      "count": 3092,
      "max": [
        1.127866268157959,
        0.3785381019115448,
        0.37854170799255371
      ],
      "min": [
        -1.1278672218322754,
        -0.37854033708572388,
        -0.37853705883026123
      ],
      "type": "VEC3"
    },
    {
      "bufferView": 2,
      "byteOffset": 841080,
      "componentType": 5126,
      "count": 3092,
      "max": [
        1,
        0.99999988079071045,
        0.99999988079071045
      ],
      "min": [
        -1,
        -0.99999988079071045,
        -0.99999988079071045
      ],
      "type": "VEC3"
    },
    {
      "bufferView": 1,
      "byteOffset": 191120,
      "componentType": 5126,
      "count": 3092,
      "max": [
        0.99872505664825439,
        0.90842407941818237
      ],
      "min": [
        0.09907764196395874,
        0.046063341200351715
      ],
      "type": "VEC2"
    },
    {
      "bufferView": 0,
      "byteOffset": 474144,
      "componentType": 5125,
      "count": 10080,
      "max": [
        3091
      ],
      "min": [
        0
      ],
      "type": "SCALAR"
    },
    {
      "bufferView": 2,
      "byteOffset": 878184,
      "componentType": 5126,
      "count": 383,
      "max": [
        1.1746933460235596,
        0.91300058364868164,
        3.5852546691894531
      ],
      "min": [
        -1.1823034286499023,
        0.016009125858545303,
        -3.8235361576080322
      ],
      "type": "VEC3"
    },
    {
      "bufferView": 2,
      "byteOffset": 882780,
      "componentType": 5126,
      "count": 383,
      "max": [
        0.99791157245635986,
        0.67577660083770752,
        0.84043329954147339
      ],
      "min": [
        -0.99818426370620728,
        0.060213945806026459,
        -0.99295365810394287
      ],
      "type": "VEC3"
    },
    {
      "bufferView": 1,
      "byteOffset": 215856,
      "componentType": 5126,
      "count": 383,
      "max": [
        0.99035203456878662,
        0.97994756698608398
      ],
      "min": [
        0.025669349357485771,
        0.006283104419708252
      ],
      "type": "VEC2"
    },
    {
      "bufferView": 0,
      "byteOffset": 514464,
      "componentType": 5125,
      "count": 1584,
      "max": [
        382
      ],
      "min": [
        0
      ],
      "type": "SCALAR"
    }
  ],
  "asset": {
    "extras": {
      "author": "Karol Miklas (https://sketchfab.com/karolmiklas)",
      "license": "CC-BY-4.0 (http://creativecommons.org/licenses/by/4.0/)",
      "source": "https://sketchfab.com/3d-models/free-gmc-motorhome-reimagined-low-poly-6hiH0iyDqXqtdD9wbqSbyLLhKmz",
      "title": "FREE GMC Motorhome reimagined low poly"
    },
    "generator": "Sketchfab-9.90.0",
    "version": "2.0"
  },
  "bufferViews": [
    {
      "buffer": 0,
      "byteLength": 520800,
      "byteOffset": 0,
      "name": "floatBufferViews",
      "target": 34963
    },
    {
      "buffer": 0,
      "byteLength": 218920,
      "byteOffset": 520800,
      "byteStride": 8,
      "name": "floatBufferViews",
      "target": 34962
    },
    {
      "buffer": 0,
      "byteLength": 887376,
      "byteOffset": 739720,
      "byteStride": 12,
      "name": "floatBufferViews",
      "target": 34962
    }
  ],
  "buffers": [
    {
      "byteLength": 1627096,
      "uri": "scene.bin"
    }
  ],
  "images": [
    {
      "uri": "textures/clay_baseColor.png"
    },
    {
      "uri": "textures/clay_metallicRoughness.png"
    },
    {
      "uri": "textures/clay_emissive.jpeg"
    },
    {
      "uri": "textures/clay.001_baseColor.jpeg"
    },
    {
      "uri": "textures/clay.001_metallicRoughness.png"
    },
    {
      "uri": "textures/windows_baseColor.jpeg"
    },
    {
      "uri": "textures/windows_metallicRoughness.png"
    }
  ],
  "materials": [
    {
      "doubleSided": true,
      "emissiveFactor": [
        0,
        0,
        0
      ],
      "name": "interior",
      "pbrMetallicRoughness": {
        "baseColorFactor": [
          0.31670300000000001,
          0.31670300000000001,
          0.31670300000000001,
          1
        ],
        "metallicFactor": 0,
        "roughnessFactor": 0.5
      }
    },
    {
      "doubleSided": true,
      "emissiveFactor": [
        1,
        1,
        1
      ],
      "emissiveTexture": {
        "index": 2,
        "texCoord": 0
      },
      "name": "clay",
      "pbrMetallicRoughness": {
        "baseColorFactor": [
          1,
          1,
          1,
          1
        ],
        "baseColorTexture": {
          "index": 0,
          "texCoord": 0
        },
        "metallicFactor": 0.46988338229999999,
        "metallicRoughnessTexture": {
          "index": 1,
          "texCoord": 0
        },
        "roughnessFactor": 1
      }
    },
    {
      "doubleSided": true,
      "emissiveFactor": [
        0,
        0,
        0
      ],
      "name": "clay.001",
      "pbrMetallicRoughness": {
        "baseColorFactor": [
          1,
          1,
          1,
          1
        ],
        "baseColorTexture": {
          "index": 3,
          "texCoord": 0
        },
        "metallicFactor": 1,
        "metallicRoughnessTexture": {
          "index": 4,
          "texCoord": 0
        },
        "roughnessFactor": 1
      }
    },
    {
      "alphaMode": "BLEND",
      "doubleSided": true,
      "emissiveFactor": [
        0,
        0,
        0
      ],
      "name": "windows",
      "occlusionTexture": {
        "index": 6,
        "strength": 1,
        "texCoord": 0
      },
      "pbrMetallicRoughness": {
        "baseColorFactor": [
          1,
          1,
          1,
          0.85901446469999998
        ],
        "baseColorTexture": {
          "index": 5,
          "texCoord": 0
        },
        "metallicFactor": 0.68876961619999999,
        "metallicRoughnessTexture": {
          "index": 6,
          "texCoord": 0
        },
        "roughnessFactor": 1
      }
    }
  ],
  "meshes": [
    {
      "primitives": [
        {
          "attributes": {
            "NORMAL": 1,
            "POSITION": 0
          },
          "indices": 2,
          "material": 0,
          "mode": 4
        }
      ]
    },
    {
      "primitives": [
        {
          "attributes": {
            "NORMAL": 4,
            "POSITION": 3
          },
          "indices": 5,
          "material": 0,
          "mode": 4
        }
      ]
    },
    {
      "primitives": [
        {
          "attributes": {
            "NORMAL": 7,
            "POSITION": 6
          },
          "indices": 8,
          "material": 0,
          "mode": 4
        }
      ]
    },
    {
      "primitives": [
        {
          "attributes": {
            "NORMAL": 10,
            "POSITION": 9
          },
          "indices": 11,
          "material": 0,
          "mode": 4
        }
      ]
    },
    {
      "primitives": [
        {
          "attributes": {
            "NORMAL": 13,
            "POSITION": 12
          },
          "indices": 14,
          "material": 0,
          "mode": 4
        }
      ]
    },
    {
      "primitives": [
        {
          "attributes": {
            "NORMAL": 16,
            "POSITION": 15
          },
          "indices": 17,
          "material": 0,
          "mode": 4
        }
      ]
    },
    {
      "primitives": [
        {
          "attributes": {
            "NORMAL": 19,
            "POSITION": 18,
            "TEXCOORD_0": 20
          },
          "indices": 21,
          "material": 1,
          "mode": 4
        }
      ]
    },
    {
      "primitives": [
        {
          "attributes": {
            "NORMAL": 23,
            "POSITION": 22,
            "TEXCOORD_0": 24
          },
          "indices": 25,
          "material": 2,
          "mode": 4
        }
      ]
    },
    {
      "primitives": [
        {
          "attributes": {
            "NORMAL": 27,
            "POSITION": 26,
            "TEXCOORD_0": 28
          },
          "indices": 29,
          "material": 2,
          "mode": 4
        }
      ]
    },
    {
      "primitives": [
        {
          "attributes": {
            "NORMAL": 31,
            "POSITION": 30,
            "TEXCOORD_0": 32
          },
          "indices": 33,
          "material": 2,
          "mode": 4
        }
      ]
    },
    {
      "primitives": [
        {
          "attributes": {
            "NORMAL": 35,
            "POSITION": 34,
            "TEXCOORD_0": 36
          },
          "indices": 37,
          "material": 3,
          "mode": 4
        }
      ]
    }
  ],
  "nodes": [
    {
      "children": [
        1
      ],
      "name": "RootNode (gltf orientation matrix)",
      "rotation": [
        -0.70710678118654746,
        -0,
        -0,
        0.70710678118654757
      ]
    },
    {
      "children": [
        2
      ],
      "name": "RootNode (model correction matrix)"
    },
    {
      "children": [
        3
      ],
      "name": "root"
    },
    {
      "children": [
        4,
        6,
        8,
        10,
        12,
        14,
        16,
        18,
        20,
        22,
        24
      ],
      "matrix": [
        1,
        0,
        0,
        0,
        0,
        2.2204460492503131e-16,
        1,
        0,
        0,
        -1,
        2.2204460492503131e-16,
        0,
        0,
        0,
        0,
        1
      ],
      "name": "GLTF_SceneRootNode"
    },
    {
      "children": [
        5
      ],
      "matrix": [
        1.0597087921419137,
        0.012565305922984053,
        -0.0037094417847638489,
        0,
        -0.012953092384256014,
        1.0498625114720919,
        -0.14413550133053582,
        0,
        0.0019657645745717856,
        0.14416982509769949,
        1.0499358626323534,
        0,
        0.75953620672225952,
        0.24415850639343262,
        3.3979837894439697,
        1
      ],
      "name": "Circle.001_0"
    },
    {
      "mesh": 0,
      "name": ""
    },
    {
      "children": [
        7
      ],
      "matrix": [
        1,
        0,
        0,
        0,
        0,
        1,
        0,
        0,
        0,
        0,
        1,
        0,
        0.84150010347366333,
        0.29307264089584351,
        3.4762399196624756,
        1
      ],
      "name": "Cube_1"
    },
    {
      "mesh": 1,
      "name": ""
    },
    {
      "children": [
        9
      ],
      "matrix": [
        0.24527092278003693,
        0,
        0,
        0,
        0,
        0.28796401619911194,
        0,
        0,
        0,
        0,
        0.24527092278003693,
        0,
        0.75219237804412842,
        0.13026291131973267,
        2.7305293083190918,
        1
      ],
      "name": "Cube.003_2"
    },
    {
      "mesh": 2,
      "name": ""
    },
    {
      "children": [
        11
      ],
      "matrix": [
        1.1690809726715088,
        0,
        0,
        0,
        0,
        1.1690809726715088,
        0,
        0,
        0,
        0,
        1.1690809726715088,
        0,
        0,
        0,
        0,
        1
      ],
      "name": "Plane.006_3"
    },
    {
      "mesh": 3,
      "name": ""
    },
    {
      "children": [
        13
      ],
      "matrix": [
        1,
        0,
        0,
        0,
        0,
        1,
        0,
        0,
        0,
        0,
        1,
        0,
        -0.65635234117507935,
        0.29307264089584351,
        3.4762399196624756,
        1
      ],
      "name": "Cube.001_4"
    },
    {
      "mesh": 4,
      "name": ""
    },
    {
      "children": [
        15
      ],
      "matrix": [
        -0.21942660547681722,
        0,
        -0.10958918911230271,
        0,
        0,
        0.28796401619911194,
        0,
        0,
        0.10958918911230271,
        0,
        -0.21942660547681722,
        0,
        -0.74566000699996948,
        0.10026108473539352,
        2.8466851711273193,
        1
      ],
      "name": "Cube.002_5"
    },
    {
      "mesh": 5,
      "name": ""
    },
    {
      "children": [
        17
      ],
      "matrix": [
        1.1690809726715088,
        0,
        0,
        0,
        0,
        1.1690809726715088,
        0,
        0,
        0,
        0,
        1.1690809726715088,
        0,
        0,
        0,
        0,
        1
      ],
      "name": "Plane.009_10"
    },
    {
      "mesh": 6,
      "name": ""
    },
    {
      "children": [
        19
      ],
      "matrix": [
        1.1690809726715088,
        0,
        0,
        0,
        -0,
        1.0356090596863854,
        -0.54246123931396406,
        0,
        0,
        0.54246123931396406,
        1.0356090596863854,
        0,
        0,
        -0.96018439531326294,
        3.0583484172821045,
        1
      ],
      "name": "Plane.001_11"
    },
    {
      "mesh": 7,
      "name": ""
    },
    {
      "children": [
        21
      ],
      "matrix": [
        1.1690809726715088,
        0,
        0,
        0,
        0,
        1.1336401253115884,
        0.2856753173553625,
        0,
        0,
        -0.2856753173553625,
        1.1336401253115884,
        0,
        0,
        -0.96018439531326294,
        -1.14131760597229,
        1
      ],
      "name": "Plane.003_12"
    },
    {
      "mesh": 8,
      "name": ""
    },
    {
      "children": [
        23
      ],
      "matrix": [
        1.1690809726715088,
        0,
        -0,
        0,
        -0,
        0.41821231378267087,
        -1.09171827009678,
        0,
        0,
        1.09171827009678,
        0.41821231378267087,
        0,
        0,
        -0.96018439531326294,
        -2.186190128326416,
        1
      ],
      "name": "Plane.004_13"
    },
    {
      "mesh": 9,
      "name": ""
    },
    {
      "children": [
        25
      ],
      "matrix": [
        1.1690809726715088,
        0,
        0,
        0,
        0,
        1.1690809726715088,
        0,
        0,
        0,
        0,
        1.1690809726715088,
        0,
        0,
        0,
        0,
        1
      ],
      "name": "Plane.005_14"
    },
    {
      "mesh": 10,
      "name": ""
    }
  ],
  "samplers": [
    {
      "magFilter": 9729,
      "minFilter": 9987,
      "wrapS": 10497,
      "wrapT": 10497
    }
  ],
  "scene": 0,
  "scenes": [
    {
      "name": "OSG_Scene",
      "nodes": [
        0
      ]
    }
  ],
  "textures": [
    {
      "sampler": 0,
      "source": 0
    },
    {
      "sampler": 0,
      "source": 1
    },
    {
      "sampler": 0,
      "source": 2
    },
    {
      "sampler": 0,
      "source": 3
    },
    {
      "sampler": 0,
      "source": 4
    },
    {
      "sampler": 0,
      "source": 5
    },
    {
      "sampler": 0,
      "source": 6
    }
  ]
}

